<svg width="32" height="32" viewBox="0 0 32 32" fill="none" xmlns="http://www.w3.org/2000/svg">
<path opacity="0.4" d="M16.0001 29.3334C23.3639 29.3334 29.3334 23.3639 29.3334 16.0001C29.3334 8.63628 23.3639 2.66675 16.0001 2.66675C8.63628 2.66675 2.66675 8.63628 2.66675 16.0001C2.66675 23.3639 8.63628 29.3334 16.0001 29.3334Z" fill="#62CF3A"/>
<path d="M20.9467 21.2401C20.7734 21.2401 20.6 21.2001 20.44 21.0934L16.3067 18.6268C15.28 18.0134 14.52 16.6668 14.52 15.4801V10.0134C14.52 9.46676 14.9734 9.01343 15.52 9.01343C16.0667 9.01343 16.52 9.46676 16.52 10.0134V15.4801C16.52 15.9601 16.92 16.6668 17.3334 16.9068L21.4667 19.3734C21.9467 19.6534 22.0934 20.2668 21.8134 20.7468C21.6134 21.0668 21.28 21.2401 20.9467 21.2401Z" fill="#62CF3A"/>
</svg>
